<svg id="Layer_1" enable-background="new 0 0 30 30" viewBox="0 0 30 30" xmlns="http://www.w3.org/2000/svg"><g><path d="m12.031 14.945c3.892 1.641 8.378-.184 10.018-4.077 1.641-3.892-.184-8.378-4.077-10.018-2.464-1.039-5.292-.715-7.457.854-.335.244-.408.714-.164 1.049s.714.408 1.049.164c2.743-1.982 6.574-1.365 8.556 1.378s1.365 6.574-1.378 8.556-6.574 1.365-8.556-1.378c-1.251-1.733-1.51-3.993-.681-5.964.16-.382-.02-.822-.402-.982h-.001c-.381-.161-.82.017-.982.397 0 .001-.001.002-.001.003-1.641 3.892.184 8.378 4.076 10.018z"/><path d="m20.84 17.209c-.842 0-1.678.136-2.477.402l-1.431.477c-.732.244-1.504.346-2.275.3-.541-.029-1.076-.13-1.591-.3l-1.431-.477c-3.591-1.196-7.523.345-9.344 3.663h.002c-.632 1.155-.964 2.45-.965 3.767v2.438c.002 1.254 1.019 2.27 2.273 2.271h22.8c1.254-.002 2.269-1.017 2.271-2.271v-2.438c0-4.325-3.506-7.832-7.832-7.832zm6.334 10.269c0 .426-.346.772-.772.772h-.001-22.8c-.426-.001-.77-.345-.771-.771v-2.438c0-3.497 2.835-6.332 6.332-6.332.68 0 1.356.11 2.002.325h-.002l1.432.477c.64.214 1.306.341 1.98.379h.046c.945.048 1.891-.081 2.788-.38l1.432-.477c3.318-1.106 6.904.688 8.009 4.005.215.645.325 1.321.325 2.002z"/></g></svg>